PathFileType	4	(X/Y/Z)	Patient4_TMGait_0pt5_01_left_31.trc.trc
DataRate	CameraRate	NumFrames	NumMarkers	Units	OrigDataRate	OrigDataStartFrame	OrigNumFrames
76.502732240437	76.502732240437	4	33	mm	76.502732240437	18	       141
Frame#	Time	L.ASIS			Sacral			L.Shoulder			Chest			R.Shoulder			Neck			R.ASIS			R.Thigh.Superior			R.Thigh.Lateral			R.Thigh.Inferior			R.Patella			L.Thigh.Superior			L.Thigh.Lateral			L.Thigh.Inferior			L.Patella			L.Shank.Superior			L.Shank.Lateral			L.Shank.Inferior			R.Shank.Superior			R.Shank.Lateral			R.Shank.Inferior			R.Heel			R.Midfoot.Superior			R.Midfoot.Lateral			R.Toe			L.Heel			L.Midfoot.Lateral			L.Midfoot.Superior			L.Toe			L.Elbow			L.Wrist			R.Elbow			R.Wrist			
		X1	Y1	Z1	X2	Y2	Z2	X3	Y3	Z3	X4	Y4	Z4	X5	Y5	Z5	X6	Y6	Z6	X7	Y7	Z7	X8	Y8	Z8	X9	Y9	Z9	X10	Y10	Z10	X11	Y11	Z11	X12	Y12	Z12	X13	Y13	Z13	X14	Y14	Z14	X15	Y15	Z15	X16	Y16	Z16	X17	Y17	Z17	X18	Y18	Z18	X19	Y19	Z19	X20	Y20	Z20	X21	Y21	Z21	X22	Y22	Z22	X23	Y23	Z23	X24	Y24	Z24	X25	Y25	Z25	X26	Y26	Z26	X27	Y27	Z27	X28	Y28	Z28	X29	Y29	Z29	X30	Y30	Z30	X31	Y31	Z31	X32	Y32	Z32	X33	Y33	Z33	

18	41.602214285714	827.114280129941	967.304370479229	368.747852188434	644.664614030146	1012.948329039559	561.730907780232	796.395071370892	1442.290629373791	369.026063044067	925.544232427474	1362.238071840273	504.775180497821	879.078346453275	1433.189633117104	694.189071816454	829.335306170111	1497.532635009263	518.394832912738	882.967791471626	937.168752339252	636.966719677997	889.165566255788	729.034529099161	603.755312406582	798.668104278687	630.674172391553	673.058476048987	853.847530218603	569.961705020030	585.029837038251	840.369194056811	485.460735513304	590.265143082950	897.812163819526	776.400834422502	393.198880921423	843.182988656303	653.431267022379	318.551754416227	942.153133196893	587.255160166154	380.740798939728	969.045425728316	526.587225071430	375.597087069507	957.475575600914	457.871921167759	362.600113954235	902.357306932266	323.240705398361	310.619827641114	999.088986350830	231.801085108276	363.988152242496	807.893022862004	399.384735039892	597.943872779234	733.408633617756	298.663672512941	659.499554938314	765.899026066826	203.501603109029	592.741426193114	621.998058144553	43.540811814124	558.115637010367	792.546489362756	96.502843714020	598.288916793515	703.257415209965	36.187109284558	635.386133253865	911.714832143786	43.448616710111	629.433286535891	934.690235394505	39.774279298684	401.736526558967	1007.486602928700	54.911182094528	321.578808288862	1066.052290364323	142.918321183018	341.111716462274	1202.726144519858	134.131474849926	315.729807225989	661.819041678301	1108.460243434453	279.212586915164	631.018125431704	851.453860681572	270.499666700553	997.247779147075	1110.832748493441	802.547401887497	1246.422981058252	1049.738337052940	775.363282087978	
19	41.615285714286	827.172878762242	966.494130692948	367.979775764199	645.091528285457	1012.203981417048	561.187648269178	795.938321629636	1441.674844040130	368.210343733067	925.235748053698	1361.727527469780	503.895978085450	878.785557133958	1432.616458011939	693.328133494133	828.906558209056	1496.952958826464	517.576207065864	883.355294861381	936.669624790712	636.313645783968	888.010565997530	728.124882296738	603.191487526828	796.661856466112	630.229892330534	672.592085410167	851.297530207493	569.071225214925	584.748045734429	837.080982732145	484.613325219373	589.961870991176	897.987559376596	775.576062195489	392.104293507514	841.824073618446	651.931090015263	319.002263636045	941.565991176859	586.221543075009	379.884339548298	968.294863759242	525.703879338899	375.256122988253	956.869750978266	456.874541383204	362.861730910334	901.858868066339	321.868605362060	312.150838867600	999.365912434393	231.138553182935	365.129665371850	803.880604724183	398.769676027175	597.609658712780	728.682544553832	298.685119075132	659.284553599408	760.311573681404	203.187937187572	592.585133104333	615.448794078506	43.621402887763	558.178445447767	786.026009943888	96.447196799089	598.313337519711	696.682969539588	36.193971838261	635.375349173984	905.137582223059	43.213137244512	629.500227110916	935.811302669917	39.751524378389	404.485565746048	1007.898750570398	54.157644432919	323.648603697477	1066.797852303165	141.945208907951	342.186903097806	1203.123039259947	132.607959719300	315.793461759915	662.327090693282	1107.542611257983	278.113021427593	632.716036637034	850.393011238460	269.015096181107	996.549173630737	1109.678357183772	800.724886458490	1246.019396065809	1050.299318185818	773.636353729981	
20	41.628357142857	827.624236243893	965.563058383828	367.164065153626	645.667655794624	1011.326379029116	560.386495381145	795.464942986681	1440.948385833252	367.208466777459	924.895299126797	1361.223884068838	502.918736246324	878.298954829561	1432.022994722951	692.341877845570	828.344435761206	1496.309753986799	516.591100944903	883.877539252777	936.155060461919	635.651610766402	886.917073207879	727.155230261380	602.699827469999	794.608290764648	629.783116189164	672.133746108737	848.769394512204	568.140760735875	584.541307144320	833.783794644599	483.727063508739	589.681236553897	898.915263042377	774.844429189320	390.881138945140	841.015507942323	650.311847341243	319.574423430011	941.650821062149	585.158453965034	378.896378739823	968.074900776470	524.432824690755	374.854518697483	956.365126902629	455.289546740487	363.267797728227	900.463993625037	320.369748406013	313.792355846098	997.897421019114	229.621257852268	366.520150010388	799.849706387111	398.142596236007	597.295967063457	723.910844561939	298.710608364685	659.069915800515	754.707069324812	202.872489886883	592.441125998907	608.896433497591	43.677536835604	558.237845510206	779.507387388735	96.392804689813	598.352067959137	690.107436031543	36.183657846543	635.364174266340	898.553045997397	42.983837859061	629.568519695031	933.588328729009	39.594626889805	407.235655567025	1005.139461430260	52.798496453573	325.804564972409	1065.096631546994	139.711098605659	343.607995185007	1200.963226145762	128.630671028574	316.283635168200	663.261994557913	1106.335799418017	276.716685054158	635.573908345055	848.958994072760	267.147904630267	995.154999737761	1108.242470852153	798.841726714402	1244.783261033580	1049.794972783182	771.996607138600	
21	41.641428571429	828.492503598019	964.492251536830	366.308428190567	646.401871443437	1010.313217168371	559.320920704025	794.989476500294	1440.097191744422	366.016993420741	924.535337860575	1360.719219859893	501.844490875921	877.620336993986	1431.396257851589	691.230392269473	827.655679372505	1495.592420890656	515.434870704370	884.539668814175	935.602743918004	634.985461936204	885.916485327111	726.110763720331	602.305368308880	792.518732415159	629.326365949549	671.682894788756	846.276962204752	567.162541854264	584.407858925588	830.483084324144	482.789719717320	589.411092221630	900.462172397022	774.070219051176	389.586857335718	840.689893830918	648.559585455010	320.187144979830	942.229804130660	583.972461752757	377.860086086472	968.205536961159	522.752023170421	374.482665064662	955.908899442659	453.159640771867	363.814811331372	898.375018392113	318.676123993808	315.461279644081	995.045921706674	227.313221425480	368.119322730448	795.812351880050	397.496732175458	596.995863828766	719.106970303157	298.732596229655	658.857888720641	749.088198637245	202.548361586238	592.304972707662	602.339054520507	43.708092570889	558.294631364859	772.983402110523	96.333580609449	598.396952079984	683.531592232493	36.152475866901	635.353965052284	891.964114907143	42.758028947545	629.634781152610	928.650104203421	39.236774961764	409.835910948643	999.896125953942	50.891524162218	327.964237810406	1061.510738633592	136.343507349084	345.383909551195	1196.852679669447	122.501243290653	317.334168642624	664.585700606401	1104.843729109633	275.053564760872	639.539150189364	847.174281085242	264.927338882847	993.092385183468	1106.540245930793	796.927339514161	1242.745978094830	1048.216292656788	770.450723568502	
